HIERARCHY
ROOT hips
{
  OFFSET 0 10.6860622 2.3727825e-15
  CHANNELS 6 Xposition Yposition Zposition Yrotation Xrotation Zrotation
  JOINT leftUpperLeg
  {
    OFFSET 0.6642549969 -0.9402397400000004 0
    CHANNELS 3 Yrotation Xrotation Zrotation
    JOINT leftLowerLeg
    {
      OFFSET 0 -3.997221335632195 0
      CHANNELS 3 Yrotation Xrotation Zrotation
      JOINT leftFoot
      {
        OFFSET -0.13777839790000004 -4.6145792000000005 -0.22186036399999998
        CHANNELS 3 Yrotation Xrotation Zrotation
        JOINT leftToes
        {
          OFFSET -0.03777410834999995 -0.9130806927000008 0.85230013
          CHANNELS 3 Yrotation Xrotation Zrotation
          End Site
          {
            OFFSET -0.03777410834999995 -0.9130806927000008 0.85230013
          }
        }
      }
    }
  }
  JOINT rightUpperLeg
  {
    OFFSET -0.6642778626 -0.9402397400000004 0
    CHANNELS 3 Yrotation Xrotation Zrotation
    JOINT rightLowerLeg
    {
      OFFSET 0 -3.997221452859387 0
      CHANNELS 3 Yrotation Xrotation Zrotation
      JOINT rightFoot
      {
        OFFSET 0.1377926176 -4.6145792000000005 -0.22185782299999995
        CHANNELS 3 Yrotation Xrotation Zrotation
        JOINT rightToes
        {
          OFFSET 0.037780746850000047 -0.9130806927000008 0.85230167
          CHANNELS 3 Yrotation Xrotation Zrotation
          End Site
          {
            OFFSET 0.037780746850000047 -0.9130806927000008 0.85230167
          }
        }
      }
    }
  }
  JOINT spine
  {
    OFFSET 0 0.13988381660000015 0
    CHANNELS 3 Yrotation Xrotation Zrotation
    JOINT chest
    {
      OFFSET 0 0.6191039003973773 0
      CHANNELS 3 Yrotation Xrotation Zrotation
      JOINT upperChest
      {
        OFFSET 0 0.9855186130586943 0
        CHANNELS 3 Yrotation Xrotation Zrotation
        JOINT leftShoulder
        {
          OFFSET 0.1807663869 1.5087829790000005 0
          CHANNELS 3 Yrotation Xrotation Zrotation
          JOINT leftUpperArm
          {
            OFFSET 0.5985063006419806 0 0
            CHANNELS 3 Yrotation Xrotation Zrotation
            JOINT leftLowerArm
            {
              OFFSET 2.2993332369501065 0 0
              CHANNELS 3 Yrotation Xrotation Zrotation
              JOINT leftHand
              {
                OFFSET 2.395047042602395 0 0
                CHANNELS 3 Yrotation Xrotation Zrotation
                JOINT leftIndexProximal
                {
                  OFFSET 0.5766295810000004 0.04556643899499946 0.17265095988184
                  CHANNELS 3 Yrotation Xrotation Zrotation
                  JOINT leftIndexIntermediate
                  {
                    OFFSET 0.2957229000000008 -0.019352197700001517 -0.007932640616999987
                    CHANNELS 3 Yrotation Xrotation Zrotation
                    JOINT leftIndexDistal
                    {
                      OFFSET 0.19008243099999922 -0.012484908149998475 -0.002786250786000012
                      CHANNELS 3 Yrotation Xrotation Zrotation
                      End Site
                      {
                        OFFSET 0.19008243099999922 -0.012484908149998475 -0.002786250786000012
                      }
                    }
                  }
                }
                JOINT leftMiddleProximal
                {
                  OFFSET 0.5834975091000001 0.0524350405149987 0.02204081888183999
                  CHANNELS 3 Yrotation Xrotation Zrotation
                  JOINT leftMiddleIntermediate
                  {
                    OFFSET 0.33880573540000003 -0.019871473270000717 -0.00000971183179999946
                    CHANNELS 3 Yrotation Xrotation Zrotation
                    JOINT leftMiddleDistal
                    {
                      OFFSET 0.20676022730000088 -0.012221336379999448 0.0001471936708000235
                      CHANNELS 3 Yrotation Xrotation Zrotation
                      End Site
                      {
                        OFFSET 0.20676022730000088 -0.012221336379999448 0.0001471936708000235
                      }
                    }
                  }
                }
                JOINT leftLittleProximal
                {
                  OFFSET 0.5344154683999995 -0.012880921405001189 -0.24414037221816004
                  CHANNELS 3 Yrotation Xrotation Zrotation
                  JOINT leftLittleIntermediate
                  {
                    OFFSET 0.21758961730000093 -0.011650919939999227 0.011893592810000034
                    CHANNELS 3 Yrotation Xrotation Zrotation
                    JOINT leftLittleDistal
                    {
                      OFFSET 0.1475273964999999 -0.008152365682999818 0.006001092492999946
                      CHANNELS 3 Yrotation Xrotation Zrotation
                      End Site
                      {
                        OFFSET 0.1475273964999999 -0.008152365682999818 0.006001092492999946
                      }
                    }
                  }
                }
                JOINT leftRingProximal
                {
                  OFFSET 0.5799399463000003 0.026911854694997794 -0.12150566991816003
                  CHANNELS 3 Yrotation Xrotation Zrotation
                  JOINT leftRingIntermediate
                  {
                    OFFSET 0.26167887460000006 -0.013480186499999602 0.010996293000000053
                    CHANNELS 3 Yrotation Xrotation Zrotation
                    JOINT leftRingDistal
                    {
                      OFFSET 0.17667108799999987 -0.008990287899999228 0.0055541023999999065
                      CHANNELS 3 Yrotation Xrotation Zrotation
                      End Site
                      {
                        OFFSET 0.17667108799999987 -0.008990287899999228 0.0055541023999999065
                      }
                    }
                  }
                }
                JOINT leftThumbProximal
                {
                  OFFSET 0.11018806699999972 -0.09448718900500053 0.17047963138184
                  CHANNELS 3 Yrotation Xrotation Zrotation
                  JOINT leftThumbIntermediate
                  {
                    OFFSET 0.31062601459999983 -0.08126270900000132 0.15443142000000007
                    CHANNELS 3 Yrotation Xrotation Zrotation
                    JOINT leftThumbDistal
                    {
                      OFFSET 0.21627175790000086 -0.08833193599999878 0.018771167799999988
                      CHANNELS 3 Yrotation Xrotation Zrotation
                      End Site
                      {
                        OFFSET 0.21627175790000086 -0.08833193599999878 0.018771167799999988
                      }
                    }
                  }
                }
              }
            }
          }
        }
        JOINT neck
        {
          OFFSET 0 1.5463305265074576 0
          CHANNELS 3 Yrotation Xrotation Zrotation
          JOINT head
          {
            OFFSET 0 0.8456443600000344 0
            CHANNELS 3 Yrotation Xrotation Zrotation
            JOINT leftEye
            {
              OFFSET 0.30408573140000006 0.5104519199999995 0.1276382305
              CHANNELS 3 Yrotation Xrotation Zrotation
              End Site
              {
                OFFSET 0.30408573140000006 0.5104519199999995 0.1276382305
              }
            }
            JOINT rightEye
            {
              OFFSET -0.30409491089999996 0.5104519199999995 0.1276379445
              CHANNELS 3 Yrotation Xrotation Zrotation
              End Site
              {
                OFFSET -0.30409491089999996 0.5104519199999995 0.1276379445
              }
            }
            JOINT jaw
            {
              OFFSET -3.155239131000001e-7 -0.11984121820000082 0.60178107
              CHANNELS 3 Yrotation Xrotation Zrotation
              End Site
              {
                OFFSET -3.155239131000001e-7 -0.11984121820000082 0.60178107
              }
            }
          }
        }
        JOINT rightShoulder
        {
          OFFSET -0.1807303465 1.5087829790000005 0
          CHANNELS 3 Yrotation Xrotation Zrotation
          JOINT rightUpperArm
          {
            OFFSET -0.5985063796536958 0 0
            CHANNELS 3 Yrotation Xrotation Zrotation
            JOINT rightLowerArm
            {
              OFFSET -2.2993322059002854 0 0
              CHANNELS 3 Yrotation Xrotation Zrotation
              JOINT rightHand
              {
                OFFSET -2.395045314457259 0 0
                CHANNELS 3 Yrotation Xrotation Zrotation
                JOINT rightIndexProximal
                {
                  OFFSET -0.5764487688300002 0.0441371204405987 0.17361932004999997
                  CHANNELS 3 Yrotation Xrotation Zrotation
                  JOINT rightIndexIntermediate
                  {
                    OFFSET -0.29573011380000047 -0.01934826376999843 -0.007698921482999974
                    CHANNELS 3 Yrotation Xrotation Zrotation
                    JOINT rightIndexDistal
                    {
                      OFFSET -0.19008373999999884 -0.012503266380000655 -0.0026365778999999897
                      CHANNELS 3 Yrotation Xrotation Zrotation
                      End Site
                      {
                        OFFSET -0.19008373999999884 -0.012503266380000655 -0.0026365778999999897
                      }
                    }
                  }
                }
                JOINT rightMiddleProximal
                {
                  OFFSET -0.5834852037300005 0.05211639405060153 0.02307162440000001
                  CHANNELS 3 Yrotation Xrotation Zrotation
                  JOINT rightMiddleIntermediate
                  {
                    OFFSET -0.33880114510000003 -0.019952774050000954 0.0002455003561999819
                    CHANNELS 3 Yrotation Xrotation Zrotation
                    JOINT rightMiddleDistal
                    {
                      OFFSET -0.20675694929999955 -0.012273788999999091 0.00030209124000002766
                      CHANNELS 3 Yrotation Xrotation Zrotation
                      End Site
                      {
                        OFFSET -0.20675694929999955 -0.012273788999999091 0.00030209124000002766
                      }
                    }
                  }
                }
                JOINT rightLittleProximal
                {
                  OFFSET -0.5346811737299992 -0.011214256288399227 -0.24363941305000003
                  CHANNELS 3 Yrotation Xrotation Zrotation
                  JOINT rightLittleIntermediate
                  {
                    OFFSET -0.21757715980000092 -0.011771559690000988 0.01201554387
                    CHANNELS 3 Yrotation Xrotation Zrotation
                    JOINT rightLittleDistal
                    {
                      OFFSET -0.1475201849000004 -0.00822055339600003 0.006082065407000015
                      CHANNELS 3 Yrotation Xrotation Zrotation
                      End Site
                      {
                        OFFSET -0.1475201849000004 -0.00822055339600003 0.006082065407000015
                      }
                    }
                  }
                }
                JOINT rightRingProximal
                {
                  OFFSET -0.5800810755299999 0.027657985680600072 -0.12066365025000003
                  CHANNELS 3 Yrotation Xrotation Zrotation
                  JOINT rightRingIntermediate
                  {
                    OFFSET -0.26166445029999974 -0.013623118409999302 0.011164098990000045
                    CHANNELS 3 Yrotation Xrotation Zrotation
                    JOINT rightRingDistal
                    {
                      OFFSET -0.17666387530000027 -0.009072900100000503 0.005668185599999959
                      CHANNELS 3 Yrotation Xrotation Zrotation
                      End Site
                      {
                        OFFSET -0.17666387530000027 -0.009072900100000503 0.005668185599999959
                      }
                    }
                  }
                }
                JOINT rightThumbProximal
                {
                  OFFSET -0.10997596379000074 -0.09577489355940072 0.16989765924999997
                  CHANNELS 3 Yrotation Xrotation Zrotation
                  JOINT rightThumbIntermediate
                  {
                    OFFSET -0.31036620999999986 -0.08229339117999834 0.15440884469999996
                    CHANNELS 3 Yrotation Xrotation Zrotation
                    JOINT rightThumbDistal
                    {
                      OFFSET -0.21631306399999906 -0.08825326400000111 0.018656797720000014
                      CHANNELS 3 Yrotation Xrotation Zrotation
                      End Site
                      {
                        OFFSET -0.21631306399999906 -0.08825326400000111 0.018656797720000014
                      }
                    }
                  }
                }
              }
            }
          }
        }
      }
    }
  }
}
MOTION
Frames: 5
Frame Time: 0.03333333333333333
-6.85817644576036 -6.767885528201196 2.840174788785197 99.37520128616922 41.61735881549384 6.257452850032803 36.22858058914742 -82.32314762574293 -37.076747096234996 176.17042572660208 50.33903107856733 177.9313868268164 28.652049598464583 54.140528960639216 32.7074232302937 0 0 0 12.032910295352155 -87.52432586606277 -11.655067320374776 -176.37548161448993 49.19863820726162 -178.42734634167587 -7.584471583055652 63.14865315639002 -1.7982685481447451 0 0 0 -1.010229388003852 15.625302264039039 -4.010103278757463 0.00922835127862483 25.101865474076096 0.8215512931175659 0 0 0 29.62552009133638 1.1556249094076263 -8.97850712482057 11.222235667159126 -58.491639986441136 -111.26143845090374 -73.8985612342914 -38.38016878274659 -25.1588076427856 26.948063787814387 -36.87661030918223 -28.587438565346808 0 0 0 0 0 0 0 0 0 0 0 0 0 0 0 0 0 0 0 0 0 0 0 0 0 0 0 0 0 0 0 0 0 0 0 0 0 0 0 0 0 0 0 0 0 29.8579126894171 -33.86973011628548 -30.942435993773593 0 9.19761039374516 0 0 0 0 0 0 0 0 0 0 4.505363608276009 2.7754240210573973 -36.61469957239368 76.51444936026041 -2.851499659277787 -20.769632373447063 -175.3997528884073 -68.26566821208381 -155.1285388561794 -7.10458561933475 3.7864014683190197 -25.69426600979374 0 0 0 0 0 0 0 0 0 0 0 0 0 0 0 0 0 0 0 0 0 0 0 0 0 0 0 0 0 0 0 0 0 0 0 0 0 0 0 0 0 0 0 0 0
-6.85817644576036 -6.767885528201196 2.840174788785197 99.37520128616922 41.61735881549384 6.257452850032803 36.22858058914742 -82.32314762574293 -37.076747096234996 176.17042572660208 50.33903107856733 177.9313868268164 28.652049598464583 54.140528960639216 32.7074232302937 0 0 0 12.032910295352155 -87.52432586606277 -11.655067320374776 -176.37548161448993 49.19863820726162 -178.42734634167587 -7.584471583055652 63.14865315639002 -1.7982685481447451 0 0 0 -0.9893309592896503 15.389698092979469 -3.9891175700089163 0.0065182876559086176 25.072451199066357 0.813585491988875 0 0 0 29.40385684735008 1.133445954998514 -8.924054844312362 11.222235667159126 -58.491639986441136 -111.26143845090374 -73.59586757593799 -38.27804610533609 -24.953527847439492 26.916429627744197 -36.65007381801223 -28.719836959315998 0 0 0 0 0 0 0 0 0 0 0 0 0 0 0 0 0 0 0 0 0 0 0 0 0 0 0 0 0 0 0 0 0 0 0 0 0 0 0 0 0 0 0 0 0 29.714314200348223 -33.49324686571198 -30.68338661822701 0 9.46432831662749 0 0 0 0 0 0 0 0 0 0 4.288654749164282 2.6193171529100736 -36.34717631051976 76.5218548483868 -2.8588533757481867 -20.66058994597371 -174.51632460766734 -68.34182484701635 -155.26684839709478 -7.122010458182174 3.7533760509490675 -25.959573448725582 0 0 0 0 0 0 0 0 0 0 0 0 0 0 0 0 0 0 0 0 0 0 0 0 0 0 0 0 0 0 0 0 0 0 0 0 0 0 0 0 0 0 0 0 0
-6.85817644576036 -6.767885528201196 2.840174788785197 99.37520128616922 41.61735881549384 6.257452850032803 36.22858058914742 -82.32314762574293 -37.076747096234996 176.17042572660208 50.33903107856733 177.9313868268164 28.652049598464583 54.140528960639216 32.7074232302937 0 0 0 12.032910295352155 -87.52432586606277 -11.655067320374776 -176.37548161448993 49.19863820726162 -178.42734634167587 -7.584471583055652 63.14865315639002 -1.7982685481447451 0 0 0 -0.968545448772186 15.154086087560586 -3.968244847151607 0.003813387455791568 25.043038332946328 0.8056230291719249 0 0 0 29.182174431552806 1.111477878734615 -8.869516861171796 11.222235667159126 -58.491639986441136 -111.26143845090374 -73.29313264157582 -38.17677063966611 -24.747852512291175 26.884235224047494 -36.42359486333941 -28.852002929674285 0 0 0 0 0 0 0 0 0 0 0 0 0 0 0 0 0 0 0 0 0 0 0 0 0 0 0 0 0 0 0 0 0 0 0 0 0 0 0 0 0 0 0 0 0 29.5733666091669 -33.11622840822842 -30.42658121272199 0 9.731046349516129 0 0 0 0 0 0 0 0 0 0 4.071244534220153 2.464223811087415 -36.07909605817175 76.52924474002549 -2.8662210305508524 -20.55154648996533 -173.62944743010496 -68.41718813017567 -155.40879023175106 -7.139280737808628 3.7202701747717564 -26.22485992420371 0 0 0 0 0 0 0 0 0 0 0 0 0 0 0 0 0 0 0 0 0 0 0 0 0 0 0 0 0 0 0 0 0 0 0 0 0 0 0 0 0 0 0 0 0
-6.85817644576036 -6.767885528201196 2.840174788785197 99.37520128616922 41.61735881549384 6.257452850032803 36.22858058914742 -82.32314762574293 -37.076747096234996 176.17042572660208 50.33903107856733 177.9313868268164 28.652049598464583 54.140528960639216 32.7074232302937 0 0 0 12.032910295352155 -87.52432586606277 -11.655067320374776 -176.37548161448993 49.19863820726162 -178.42734634167587 -7.584471583055652 63.14865315639002 -1.7982685481447451 0 0 0 -0.9273093552688816 14.682840432402877 -3.9268329626776657 -0.00158193588994201 24.984214908506345 0.7897085205282649 0 0 0 28.738730405224246 1.0681746491633215 -8.760186819092095 11.222235667159126 -58.491639986441136 -111.26143845090374 -72.68748844773963 -37.9767720148241 -24.33527862816166 26.818190223747884 -35.97081037762309 -29.11566387090539 0 0 0 0 0 0 0 0 0 0 0 0 0 0 0 0 0 0 0 0 0 0 0 0 0 0 0 0 0 0 0 0 0 0 0 0 0 0 0 0 0 0 0 0 0 29.299235651647493 -32.36059301111248 -29.919467303276704 0 10.264492025431295 0 0 0 0 0 0 0 0 0 0 3.6343083603161817 2.15708541720845 -35.54123144537546 76.54394687373166 -2.8810054229776356 -20.333479330473974 -171.8450523846013 -68.56548469610871 -155.70362337347882 -7.173361992290267 3.653820032374979 -26.755384296721534 0 0 0 0 0 0 0 0 0 0 0 0 0 0 0 0 0 0 0 0 0 0 0 0 0 0 0 0 0 0 0 0 0 0 0 0 0 0 0 0 0 0 0 0 0
-6.85817644576036 -6.767885528201196 2.840174788785197 99.37520128616922 41.61735881549384 6.257452850032803 36.22858058914742 -82.32314762574293 -37.076747096234996 176.17042572660208 50.33903107856733 177.9313868268164 28.652049598464583 54.140528960639216 32.7074232302937 0 0 0 12.032910295352155 -87.52432586606277 -11.655067320374776 -176.37548161448993 49.19863820726162 -178.42734634167587 -7.584471583055652 63.14865315639002 -1.7982685481447451 0 0 0 -0.9068563400057119 14.447208575762568 -3.9062918994964586 -0.004271268571049208 24.95480056683277 0.7817568740359422 0 0 0 28.516991039495974 1.046841188403483 -8.705400498663026 11.222235667159126 -58.491639986441136 -111.26143845090374 -72.38462062727316 -37.8780715734442 -24.128430447231302 26.784342194493334 -35.74451365143548 -29.247166127138406 0 0 0 0 0 0 0 0 0 0 0 0 0 0 0 0 0 0 0 0 0 0 0 0 0 0 0 0 0 0 0 0 0 0 0 0 0 0 0 0 0 0 0 0 0 29.165998822164774 -31.982045505499197 -29.66911694252436 0 10.53120868546402 0 0 0 0 0 0 0 0 0 0 3.41480496876238 2.0050659050683124 -35.27147684800206 76.55127820140925 -2.8884168186105303 -20.224449996040583 -170.94782622398 -68.63831778414912 -155.8564680949453 -7.190168781916852 3.6204783280697237 -27.020611020242427 0 0 0 0 0 0 0 0 0 0 0 0 0 0 0 0 0 0 0 0 0 0 0 0 0 0 0 0 0 0 0 0 0 0 0 0 0 0 0 0 0 0 0 0 0
